<svg xmlns="http://www.w3.org/2000/svg" width="160" height="43" viewBox="0 0 160 43">
    <g fill="none" fill-rule="evenodd">
        <g fill-rule="nonzero">
            <g>
                <g>
                    <g>
                        <g>
                            <path fill="#A6A6A6" d="M149.839 0H10.078c-.388 0-.77 0-1.157.002-.324.002-.645.008-.971.014-.71.008-1.418.07-2.119.187-.699.118-1.376.342-2.009.663-.632.324-1.209.745-1.71 1.247-.505.501-.926 1.08-1.246 1.715-.321.634-.544 1.313-.66 2.014-.118.7-.182 1.408-.19 2.118-.01.325-.01.65-.016.975V33.39c.005.329.006.647.016.975.008.71.072 1.419.19 2.119.116.701.338 1.38.66 2.014.32.633.74 1.21 1.245 1.709.5.504 1.078.925 1.711 1.247.633.322 1.31.547 2.01.667.7.115 1.408.178 2.118.187.326.007.647.011.97.011.387.003.77.003 1.158.003h139.76c.38 0 .766 0 1.146-.003.322 0 .653-.004.975-.01.708-.01 1.415-.072 2.114-.188.701-.121 1.381-.346 2.017-.667.632-.322 1.21-.743 1.709-1.247.503-.5.925-1.077 1.249-1.709.32-.634.54-1.313.654-2.014.118-.7.184-1.409.197-2.119.004-.328.004-.646.004-.975.008-.384.008-.767.008-1.157V10.09c0-.388 0-.772-.008-1.155 0-.325 0-.65-.004-.975-.013-.71-.079-1.418-.197-2.118-.115-.7-.335-1.38-.654-2.014-.652-1.273-1.687-2.309-2.958-2.962-.636-.32-1.316-.544-2.017-.664-.699-.116-1.406-.179-2.114-.187-.322-.005-.653-.01-.975-.013C150.604 0 150.218 0 149.84 0z" transform="translate(-1083 -979) translate(0 857) translate(1080 29) translate(3 93)"/>
                            <path fill="#000" d="M8.926 41.397c-.322 0-.636-.004-.956-.012-.662-.008-1.322-.066-1.975-.172-.61-.105-1.2-.3-1.752-.58-.546-.277-1.045-.64-1.476-1.075-.438-.43-.802-.93-1.079-1.478-.28-.552-.473-1.143-.574-1.753-.109-.656-.167-1.32-.176-1.984-.006-.223-.015-.966-.015-.966V8.935s.01-.732.015-.947c.008-.664.067-1.326.175-1.98.101-.613.295-1.206.575-1.76.275-.547.638-1.046 1.073-1.478.434-.436.934-.801 1.482-1.082.55-.279 1.14-.473 1.747-.576C6.646 1.005 7.31.947 7.973.94l.954-.013h142.052l.965.013c.658.008 1.315.066 1.965.172.614.105 1.209.3 1.766.58 1.097.566 1.99 1.461 2.552 2.56.276.55.466 1.138.566 1.745.11.66.171 1.328.184 1.997.003.3.003.621.003.942.008.396.008.774.008 1.155v22.144c0 .384 0 .76-.008 1.137 0 .344 0 .66-.004.984-.013.657-.073 1.313-.18 1.961-.1.615-.292 1.21-.572 1.767-.278.542-.64 1.037-1.073 1.466-.432.438-.931.803-1.48 1.082-.554.282-1.149.478-1.762.582-.654.107-1.314.164-1.976.172-.31.008-.634.012-.949.012l-1.145.002-140.913-.002z" transform="translate(-1083 -979) translate(0 857) translate(1080 29) translate(3 93)"/>
                        </g>
                        <g fill="#FFF">
                            <path d="M15.312 12.39c.022-1.8.922-3.462 2.384-4.404-.927-1.388-2.423-2.237-4.038-2.29-1.699-.187-3.345 1.067-4.211 1.067-.883 0-2.215-1.048-3.65-1.017C3.906 5.81 2.19 6.909 1.27 8.64c-1.956 3.553-.497 8.773 1.377 11.645.938 1.406 2.034 2.977 3.468 2.921 1.403-.061 1.927-.938 3.621-.938 1.678 0 2.17.938 3.633.903 1.506-.026 2.454-1.413 3.359-2.832.674-1.002 1.192-2.11 1.536-3.281-1.788-.793-2.951-2.631-2.953-4.667zM12.548 3.808c.821-1.034 1.226-2.362 1.128-3.703-1.254.138-2.413.766-3.245 1.76-.822.981-1.238 2.264-1.157 3.567 1.271.013 2.478-.585 3.274-1.624z" transform="translate(-1083 -979) translate(0 857) translate(1080 29) translate(3 93) translate(11.355 9.29)"/>
                        </g>
                        <g fill="#FFF">
                            <path d="M.622.934C.629.595.898.326 1.224.33c.326.004.588.281.586.62-.002.338-.267.612-.594.612-.16 0-.313-.066-.425-.184C.679 1.26.618 1.099.62.934zm.097 7.879V2.18h.994v6.633H.719zM3.337 3.807h.917v.795h.072c.247-.586.826-.943 1.44-.892.476-.037.942.152 1.267.515.325.362.474.858.404 1.347v3.24h-.953V5.82c0-.805-.337-1.204-1.041-1.204-.323-.016-.636.115-.858.359-.221.244-.33.576-.295.909v2.929h-.953V3.807zM8.671 6.307c0-1.582.784-2.584 2.004-2.584.615-.029 1.192.313 1.48.879h.071v-2.75h.953v6.96h-.913v-.79h-.076c-.309.56-.893.897-1.515.873-1.228 0-2.004-1.002-2.004-2.588zm.984 0c0 1.062.483 1.701 1.29 1.701.803 0 1.299-.648 1.299-1.697 0-1.043-.502-1.7-1.3-1.7-.801 0-1.289.643-1.289 1.696zM14.617 2.326c-.015-.262.126-.506.355-.617.23-.111.5-.066.684.114.184.18.244.458.15.702-.092.243-.32.403-.572.404-.16.008-.316-.051-.433-.165-.116-.114-.183-.272-.184-.438zm.141 1.48h.95v5.007h-.95V3.807zM17.245 3.807h.917v.767h.07c.211-.546.738-.89 1.304-.85.143-.002.285.011.425.04v.976c-.175-.039-.353-.059-.532-.06-.317-.03-.632.081-.867.305-.235.224-.367.54-.365.872v2.956h-.952V3.807zM20.96 2.326c-.014-.262.127-.506.356-.617.229-.111.5-.066.684.114.184.18.244.458.15.702-.093.243-.32.403-.573.404-.16.008-.315-.051-.432-.165-.116-.114-.183-.272-.184-.438zm.142 1.48h.95v5.007h-.95V3.807zM23.588 3.807h.917v.795h.072c.247-.586.826-.943 1.44-.892.476-.037.942.152 1.267.515.325.362.474.858.404 1.347v3.24h-.953V5.82c0-.805-.337-1.204-1.041-1.204-.323-.016-.636.115-.858.359-.221.244-.33.576-.295.909v2.929h-.953V3.807z" transform="translate(-1083 -979) translate(0 857) translate(1080 29) translate(3 93) translate(37.161 24.774)"/>
                        </g>
                        <g fill="#FFF">
                            <path d="M8.782 10.394H3.777l-1.202 3.681H.455L5.194.455h2.203l4.741 13.62H9.983l-1.2-3.68zM4.295 8.695h3.968L6.307 2.721h-.055L4.295 8.695zM22.379 9.111c0 3.086-1.593 5.068-3.996 5.068-1.242.068-2.412-.607-3.012-1.737h-.046v4.918H13.36V4.146h1.902v1.651h.036c.627-1.123 1.799-1.797 3.049-1.755 2.43 0 4.032 1.992 4.032 5.069zm-2.02 0c0-2.01-1.002-3.332-2.53-3.332-1.502 0-2.512 1.35-2.512 3.332 0 2 1.01 3.34 2.512 3.34 1.528 0 2.53-1.311 2.53-3.34zM32.916 9.111c0 3.086-1.592 5.068-3.995 5.068-1.242.068-2.412-.607-3.013-1.737h-.045v4.918h-1.965V4.146H25.8v1.651h.036c.627-1.123 1.798-1.797 3.049-1.755 2.43 0 4.03 1.992 4.03 5.069zm-2.02 0c0-2.01-1.001-3.332-2.53-3.332-1.501 0-2.511 1.35-2.511 3.332 0 2 1.01 3.34 2.511 3.34 1.529 0 2.53-1.311 2.53-3.34zM39.88 10.28c.146 1.351 1.411 2.238 3.14 2.238 1.656 0 2.848-.887 2.848-2.105 0-1.057-.719-1.69-2.42-2.124l-1.703-.425c-2.41-.604-3.53-1.773-3.53-3.671 0-2.35 1.974-3.964 4.778-3.964 2.775 0 4.677 1.614 4.741 3.964H45.75c-.119-1.36-1.202-2.18-2.785-2.18-1.583 0-2.666.83-2.666 2.038 0 .963.692 1.53 2.384 1.964l1.447.368c2.694.66 3.814 1.783 3.814 3.775 0 2.549-1.957 4.144-5.07 4.144-2.912 0-4.878-1.558-5.005-4.021h2.011zM52.185 1.796v2.35h1.82V5.76h-1.82v5.474c0 .85.365 1.247 1.165 1.247.216-.004.432-.02.646-.048v1.605c-.36.07-.725.101-1.091.094-1.939 0-2.695-.755-2.695-2.68V5.76h-1.392V4.146h1.393v-2.35h1.974zM55.06 9.111c0-3.124 1.774-5.088 4.54-5.088 2.777 0 4.543 1.964 4.543 5.088 0 3.133-1.757 5.088-4.542 5.088-2.784 0-4.54-1.955-4.54-5.088zm7.08 0c0-2.143-.947-3.408-2.54-3.408-1.592 0-2.538 1.274-2.538 3.408 0 2.152.946 3.407 2.539 3.407 1.592 0 2.54-1.255 2.54-3.407zM65.763 4.146h1.874v1.69h.046c.261-1.088 1.222-1.837 2.303-1.794.226-.001.452.024.673.076v1.906c-.286-.09-.584-.132-.883-.123-.578-.024-1.137.215-1.53.654-.394.439-.583 1.035-.518 1.63v5.89h-1.965v-9.93zM79.72 11.159c-.264 1.803-1.957 3.04-4.123 3.04-2.785 0-4.514-1.936-4.514-5.04 0-3.115 1.738-5.136 4.432-5.136 2.649 0 4.314 1.888 4.314 4.898v.699h-6.762v.123c-.063.74.183 1.471.676 2.01.493.537 1.185.83 1.9.803.954.092 1.853-.476 2.21-1.397h1.867zm-6.643-2.964h4.786c.036-.664-.197-1.314-.643-1.792s-1.064-.742-1.705-.728c-.647-.004-1.268.26-1.726.733-.457.474-.714 1.117-.712 1.787zM81.149 5.439L82.223.456 84.134.456 82.833 5.439zM84.048 9.111c0-3.067 1.629-5.07 4.004-5.07 1.243-.063 2.412.62 3.003 1.756h.037V.456h1.975v13.62h-1.912v-1.69h-.036c-.595 1.161-1.783 1.86-3.049 1.793-2.393 0-4.022-2-4.022-5.068zm2.01 0c0 2.038 1.002 3.34 2.53 3.34 1.512 0 2.522-1.321 2.522-3.34 0-2.002-1.01-3.332-2.521-3.332-1.529 0-2.53 1.312-2.53 3.332zM94.798 11.253c0-1.736 1.283-2.785 3.558-2.926l2.621-.151v-.755c0-1.104-.7-1.728-1.892-1.728-.914-.126-1.776.473-2.012 1.398h-1.838c.055-1.794 1.665-3.068 3.904-3.068 2.284 0 3.795 1.293 3.795 3.247v6.805h-1.884v-1.633h-.045c-.615 1.128-1.773 1.82-3.022 1.804-.814.082-1.624-.195-2.231-.765-.606-.57-.953-1.38-.954-2.228zm6.179-.896v-.765l-2.357.151c-1.174.076-1.838.604-1.838 1.453 0 .87.692 1.436 1.748 1.436.617.043 1.225-.174 1.686-.602.46-.429.735-1.032.761-1.673zM104.937 4.146h1.874v1.69h.045c.546-1.192 1.745-1.91 3.013-1.803 2.112 0 3.322 1.406 3.322 3.68v6.362h-1.975V8.11c0-1.491-.665-2.321-2.047-2.321-.644-.017-1.263.256-1.697.748-.435.492-.643 1.156-.57 1.819v5.72h-1.965v-9.93z" transform="translate(-1083 -979) translate(0 857) translate(1080 29) translate(3 93) translate(35.097 8.258)"/>
                        </g>
                    </g>
                </g>
            </g>
        </g>
    </g>
</svg>
